<svg xmlns="http://www.w3.org/2000/svg" xmlns:xlink="http://www.w3.org/1999/xlink" xmlns:lucid="lucid" width="1128.55" height="520"><g transform="translate(-340 -120)" lucid:page-tab-id="0_0"><path d="M0 0h1760v1360H0z" fill="#fff"/><path d="M1206 540c-8.84 0-16 7.16-16 16v48c0 8.84 7.16 16 16 16h148c8.84 0 16-7.16 16-16v-48c0-8.84-7.16-16-16-16z" stroke="#000" stroke-width="2" fill="#c7e8ac"/><use xlink:href="#a" transform="matrix(1,0,0,1,1198,548) translate(0.6750000000000114 35.6)"/><path d="M376 340c-8.84 0-16 7.16-16 16v48c0 8.84 7.16 16 16 16h128c8.84 0 16-7.16 16-16v-48c0-8.84-7.16-16-16-16z" stroke="#000" stroke-width="2" fill="#b2d6ef"/><use xlink:href="#b" transform="matrix(1,0,0,1,368,348) translate(55.05 35.6)"/><path d="M787.6 340c-8.83 0-16 7.16-16 16v48c0 8.84 7.17 16 16 16h128c8.85 0 16-7.16 16-16v-48c0-8.84-7.15-16-16-16z" stroke="#000" stroke-width="2" fill="#c7e8ac"/><use xlink:href="#c" transform="matrix(1,0,0,1,779.6089147274068,348) translate(18.14999999999999 35.6)"/><path d="M1216 340c-8.84 0-16 7.16-16 16v48c0 8.84 7.16 16 16 16h128c8.84 0 16-7.16 16-16v-48c0-8.84-7.16-16-16-16z" stroke="#000" stroke-width="2" fill="#ffeca9"/><use xlink:href="#d" transform="matrix(1,0,0,1,1208,348) translate(-3.6999999999999886 35.6)"/><path d="M460 220c0 11.05-8.95 20-20 20s-20-8.95-20-20 8.95-20 20-20 20 8.95 20 20z" stroke="#000" stroke-width="2"/><path d="M440 242v78.5" stroke="#000" stroke-width="2" fill="none"/><path d="M439.96 241l1.04-.03v1.06h-2v-1.15z"/><path d="M440 335.76l-4.64-14.26h9.28z" stroke="#000" stroke-width="2"/><path d="M522 380h230.1" stroke="#000" stroke-width="2" fill="none"/><path d="M522.03 381H521v-2h1.03z"/><path d="M767.37 380l-14.26 4.64v-9.28z" stroke="#000" stroke-width="2"/><use xlink:href="#e" transform="matrix(1,0,0,1,548.8075437834566,346.66666666666663) translate(0 19.555555555555557)"/><use xlink:href="#f" transform="matrix(1,0,0,1,548.8075437834566,346.66666666666663) translate(13.580246913580249 19.555555555555557)"/><use xlink:href="#g" transform="matrix(1,0,0,1,548.8075437834566,346.66666666666663) translate(93.56790123456793 19.555555555555557)"/><use xlink:href="#h" transform="matrix(1,0,0,1,548.8075437834566,346.66666666666663) translate(187.20370370370375 19.555555555555557)"/><path d="M933.6 380h246.9" stroke="#000" stroke-width="2" fill="none"/><path d="M933.63 381h-1.02v-2h1.03z"/><path d="M1195.76 380l-14.26 4.64v-9.28z" stroke="#000" stroke-width="2"/><use xlink:href="#e" transform="matrix(1,0,0,1,965.4803832896293,346.66666666666663) translate(0 19.555555555555557)"/><use xlink:href="#i" transform="matrix(1,0,0,1,965.4803832896293,346.66666666666663) translate(13.580246913580249 19.555555555555557)"/><use xlink:href="#j" transform="matrix(1,0,0,1,965.4803832896293,346.66666666666663) translate(46.17283950617284 19.555555555555557)"/><use xlink:href="#k" transform="matrix(1,0,0,1,965.4803832896293,346.66666666666663) translate(107.08024691358025 19.555555555555557)"/><use xlink:href="#h" transform="matrix(1,0,0,1,965.4803832896293,346.66666666666663) translate(193.85802469135805 19.555555555555557)"/><path d="M1280 422v98.5" stroke="#000" stroke-width="2" fill="none"/><path d="M1281 422.03h-2V421h2z"/><path d="M1280 535.76l-4.64-14.26h9.28z" stroke="#000" stroke-width="2"/><use xlink:href="#e" transform="matrix(1,0,0,1,1288,465.3333333333333) translate(0 19.555555555555557)"/><use xlink:href="#l" transform="matrix(1,0,0,1,1288,465.3333333333333) translate(13.580246913580249 19.555555555555557)"/><use xlink:href="#m" transform="matrix(1,0,0,1,1288,465.3333333333333) translate(73.26543209876544 19.555555555555557)"/><use xlink:href="#n" transform="matrix(1,0,0,1,1288,465.3333333333333) translate(97.64197530864199 19.555555555555557)"/><use xlink:href="#h" transform="matrix(1,0,0,1,1288,465.3333333333333) translate(162.7592592592593 19.555555555555557)"/><path d="M1188 580H856.6c-2.75 0-5-2.24-5-5V439.5" stroke="#000" stroke-width="2" fill="none"/><path d="M1189 581h-1.03v-2h1.03z"/><path d="M851.6 424.24l4.64 14.26h-9.27z" stroke="#000" stroke-width="2"/><g><use xlink:href="#e" transform="matrix(1,0,0,1,879.5084333158691,546.6666666666667) translate(0 19.555555555555557)"/><use xlink:href="#o" transform="matrix(1,0,0,1,879.5084333158691,546.6666666666667) translate(13.580246913580249 19.555555555555557)"/><use xlink:href="#j" transform="matrix(1,0,0,1,879.5084333158691,546.6666666666667) translate(46.17283950617284 19.555555555555557)"/><use xlink:href="#k" transform="matrix(1,0,0,1,879.5084333158691,546.6666666666667) translate(107.08024691358025 19.555555555555557)"/><use xlink:href="#h" transform="matrix(1,0,0,1,879.5084333158691,546.6666666666667) translate(193.85802469135805 19.555555555555557)"/></g><path d="M600 145c0-2.76 2.24-5 5-5h470c2.76 0 5 2.24 5 5v50c0 2.76-2.24 5-5 5H605c-2.76 0-5-2.24-5-5z" stroke="#c92d39" stroke-width="2" fill="#fff" fill-opacity="0"/><g><use xlink:href="#p" transform="matrix(1,0,0,1,600,140) translate(48.967962962962936 36.333333333333336)"/><use xlink:href="#q" transform="matrix(1,0,0,1,600,140) translate(265.26425925925923 36.333333333333336)"/><use xlink:href="#r" transform="matrix(1,0,0,1,600,140) translate(330.44944444444445 36.333333333333336)"/></g><defs><path d="M63-220v92h138v28H63V0H30v-248h175v28H63" id="s"/><path d="M30 0v-248h187v28H63v79h144v27H63v87h162V0H30" id="t"/><path d="M30-248c118-7 216 8 213 122C240-48 200 0 122 0H30v-248zM63-27c89 8 146-16 146-99s-60-101-146-95v194" id="u"/><path d="M160-131c35 5 61 23 61 61C221 17 115-2 30 0v-248c76 3 177-17 177 60 0 33-19 50-47 57zm-97-11c50-1 110 9 110-42 0-47-63-36-110-37v79zm0 115c55-2 124 14 124-45 0-56-70-42-124-44v89" id="v"/><path d="M205 0l-28-72H64L36 0H1l101-248h38L239 0h-34zm-38-99l-47-123c-12 45-31 82-46 123h93" id="w"/><path d="M212-179c-10-28-35-45-73-45-59 0-87 40-87 99 0 60 29 101 89 101 43 0 62-24 78-52l27 14C228-24 195 4 139 4 59 4 22-46 18-125c-6-104 99-153 187-111 19 9 31 26 39 46" id="x"/><path d="M194 0L95-120 63-95V0H30v-248h33v124l119-124h40L117-140 236 0h-42" id="y"/><path d="M233-177c-1 41-23 64-60 70L243 0h-38l-65-103H63V0H30v-248c88 3 205-21 203 71zM63-129c60-2 137 13 137-47 0-61-80-42-137-45v92" id="z"/><path d="M140-251c81 0 123 46 123 126C263-46 219 4 140 4 59 4 17-45 17-125s42-126 123-126zm0 227c63 0 89-41 89-101s-29-99-89-99c-61 0-89 39-89 99S79-25 140-24" id="A"/><path d="M232-93c-1 65-40 97-104 97C67 4 28-28 28-90v-158h33c8 89-33 224 67 224 102 0 64-133 71-224h33v155" id="B"/><path d="M190 0L58-211 59 0H30v-248h39L202-35l-2-213h31V0h-41" id="C"/><g id="a"><use transform="matrix(0.05,0,0,0.05,0,0)" xlink:href="#s"/><use transform="matrix(0.05,0,0,0.05,10.950000000000001,0)" xlink:href="#t"/><use transform="matrix(0.05,0,0,0.05,22.950000000000003,0)" xlink:href="#t"/><use transform="matrix(0.05,0,0,0.05,34.95,0)" xlink:href="#u"/><use transform="matrix(0.05,0,0,0.05,47.900000000000006,0)" xlink:href="#v"/><use transform="matrix(0.05,0,0,0.05,59.900000000000006,0)" xlink:href="#w"/><use transform="matrix(0.05,0,0,0.05,71.9,0)" xlink:href="#x"/><use transform="matrix(0.05,0,0,0.05,84.85000000000001,0)" xlink:href="#y"/><use transform="matrix(0.05,0,0,0.05,96.85000000000001,0)" xlink:href="#z"/><use transform="matrix(0.05,0,0,0.05,109.80000000000001,0)" xlink:href="#A"/><use transform="matrix(0.05,0,0,0.05,123.80000000000001,0)" xlink:href="#B"/><use transform="matrix(0.05,0,0,0.05,136.75,0)" xlink:href="#C"/><use transform="matrix(0.05,0,0,0.05,149.7,0)" xlink:href="#u"/></g><path d="M33 0v-248h34V0H33" id="D"/><path d="M127-220V0H93v-220H8v-28h204v28h-85" id="E"/><g id="b"><use transform="matrix(0.05,0,0,0.05,0,0)" xlink:href="#D"/><use transform="matrix(0.05,0,0,0.05,5,0)" xlink:href="#C"/><use transform="matrix(0.05,0,0,0.05,17.950000000000003,0)" xlink:href="#D"/><use transform="matrix(0.05,0,0,0.05,22.950000000000003,0)" xlink:href="#E"/></g><path d="M266 0h-40l-56-210L115 0H75L2-248h35L96-30l15-64 43-154h32l59 218 59-218h35" id="F"/><g id="c"><use transform="matrix(0.05,0,0,0.05,0,0)" xlink:href="#C"/><use transform="matrix(0.05,0,0,0.05,12.950000000000001,0)" xlink:href="#t"/><use transform="matrix(0.05,0,0,0.05,24.950000000000003,0)" xlink:href="#F"/><use transform="matrix(0.05,0,0,0.05,41.900000000000006,0)" xlink:href="#z"/><use transform="matrix(0.05,0,0,0.05,54.85,0)" xlink:href="#A"/><use transform="matrix(0.05,0,0,0.05,68.85000000000001,0)" xlink:href="#B"/><use transform="matrix(0.05,0,0,0.05,81.80000000000001,0)" xlink:href="#C"/><use transform="matrix(0.05,0,0,0.05,94.75000000000001,0)" xlink:href="#u"/></g><path d="M143 4C61 4 22-44 18-125c-5-107 100-154 193-111 17 8 29 25 37 43l-32 9c-13-25-37-40-76-40-61 0-88 39-88 99 0 61 29 100 91 101 35 0 62-11 79-27v-45h-74v-28h105v86C228-13 192 4 143 4" id="G"/><path d="M-5 72V49h209v23H-5" id="H"/><path d="M30-248c87 1 191-15 191 75 0 78-77 80-158 76V0H30v-248zm33 125c57 0 124 11 124-50 0-59-68-47-124-48v98" id="I"/><g id="d"><use transform="matrix(0.05,0,0,0.05,0,0)" xlink:href="#w"/><use transform="matrix(0.05,0,0,0.05,11.35,0)" xlink:href="#F"/><use transform="matrix(0.05,0,0,0.05,27.649999999999995,0)" xlink:href="#w"/><use transform="matrix(0.05,0,0,0.05,39.65,0)" xlink:href="#D"/><use transform="matrix(0.05,0,0,0.05,44.65,0)" xlink:href="#E"/><use transform="matrix(0.05,0,0,0.05,55.6,0)" xlink:href="#D"/><use transform="matrix(0.05,0,0,0.05,60.6,0)" xlink:href="#C"/><use transform="matrix(0.05,0,0,0.05,73.55,0)" xlink:href="#G"/><use transform="matrix(0.05,0,0,0.05,87.55,0)" xlink:href="#H"/><use transform="matrix(0.05,0,0,0.05,97.55,0)" xlink:href="#D"/><use transform="matrix(0.05,0,0,0.05,102.55000000000001,0)" xlink:href="#C"/><use transform="matrix(0.05,0,0,0.05,115.5,0)" xlink:href="#I"/><use transform="matrix(0.05,0,0,0.05,127.5,0)" xlink:href="#B"/><use transform="matrix(0.05,0,0,0.05,140.45,0)" xlink:href="#E"/></g><path d="M26 75v-336h71v23H56V52h41v23H26" id="J"/><use transform="matrix(0.06790123456790124,0,0,0.06790123456790124,0,0)" xlink:href="#J" id="e"/><path d="M100-194c63 0 86 42 84 106H49c0 40 14 67 53 68 26 1 43-12 49-29l28 8c-11 28-37 45-77 45C44 4 14-33 15-96c1-61 26-98 85-98zm52 81c6-60-76-77-97-28-3 7-6 17-6 28h103" id="K"/><path d="M59-47c-2 24 18 29 38 22v24C64 9 27 4 27-40v-127H5v-23h24l9-43h21v43h35v23H59v120" id="L"/><path d="M84 4C-5 8 30-112 23-190h32v120c0 31 7 50 39 49 72-2 45-101 50-169h31l1 190h-30c-1-10 1-25-2-33-11 22-28 36-60 37" id="M"/><path d="M114-163C36-179 61-72 57 0H25l-1-190h30c1 12-1 29 2 39 6-27 23-49 58-41v29" id="N"/><path d="M117-194c89-4 53 116 60 194h-32v-121c0-31-8-49-39-48C34-167 62-67 57 0H25l-1-190h30c1 10-1 24 2 32 11-22 29-35 61-36" id="O"/><g id="f"><use transform="matrix(0.06790123456790124,0,0,0.06790123456790124,0,0)" xlink:href="#z"/><use transform="matrix(0.06790123456790124,0,0,0.06790123456790124,17.58641975308642,0)" xlink:href="#K"/><use transform="matrix(0.06790123456790124,0,0,0.06790123456790124,31.16666666666667,0)" xlink:href="#L"/><use transform="matrix(0.06790123456790124,0,0,0.06790123456790124,37.9567901234568,0)" xlink:href="#M"/><use transform="matrix(0.06790123456790124,0,0,0.06790123456790124,51.537037037037045,0)" xlink:href="#N"/><use transform="matrix(0.06790123456790124,0,0,0.06790123456790124,59.61728395061729,0)" xlink:href="#O"/></g><path d="M115-194c55 1 70 41 70 98S169 2 115 4C84 4 66-9 55-30l1 105H24l-1-265h31l2 30c10-21 28-34 59-34zm-8 174c40 0 45-34 45-75s-6-73-45-74c-42 0-51 32-51 76 0 43 10 73 51 73" id="P"/><path d="M135-143c-3-34-86-38-87 0 15 53 115 12 119 90S17 21 10-45l28-5c4 36 97 45 98 0-10-56-113-15-118-90-4-57 82-63 122-42 12 7 21 19 24 35" id="Q"/><path d="M85-194c31 0 48 13 60 33l-1-100h32l1 261h-30c-2-10 0-23-3-31C134-8 116 4 85 4 32 4 16-35 15-94c0-66 23-100 70-100zm9 24c-40 0-46 34-46 75 0 40 6 74 45 74 42 0 51-32 51-76 0-42-9-74-50-73" id="R"/><g id="g"><use transform="matrix(0.06790123456790124,0,0,0.06790123456790124,0,0)" xlink:href="#P"/><use transform="matrix(0.06790123456790124,0,0,0.06790123456790124,13.580246913580249,0)" xlink:href="#N"/><use transform="matrix(0.06790123456790124,0,0,0.06790123456790124,21.660493827160497,0)" xlink:href="#K"/><use transform="matrix(0.06790123456790124,0,0,0.06790123456790124,35.24074074074075,0)" xlink:href="#Q"/><use transform="matrix(0.06790123456790124,0,0,0.06790123456790124,47.46296296296297,0)" xlink:href="#Q"/><use transform="matrix(0.06790123456790124,0,0,0.06790123456790124,59.6851851851852,0)" xlink:href="#K"/><use transform="matrix(0.06790123456790124,0,0,0.06790123456790124,73.26543209876544,0)" xlink:href="#R"/></g><path d="M3 75V52h41v-290H3v-23h71V75H3" id="S"/><use transform="matrix(0.06790123456790124,0,0,0.06790123456790124,0,0)" xlink:href="#S" id="h"/><path d="M126-127c33 6 58 20 58 59 0 88-139 92-164 29-3-8-5-16-6-25l32-3c6 27 21 44 54 44 32 0 52-15 52-46 0-38-36-46-79-43v-28c39 1 72-4 72-42 0-27-17-43-46-43-28 0-47 15-49 41l-32-3c6-42 35-63 81-64 48-1 79 21 79 65 0 36-21 52-52 59" id="T"/><g id="i"><use transform="matrix(0.06790123456790124,0,0,0.06790123456790124,0,0)" xlink:href="#T"/><use transform="matrix(0.06790123456790124,0,0,0.06790123456790124,13.580246913580249,0)" xlink:href="#Q"/></g><path d="M24-231v-30h32v30H24zM24 0v-190h32V0H24" id="U"/><path d="M210-169c-67 3-38 105-44 169h-31v-121c0-29-5-50-35-48C34-165 62-65 56 0H25l-1-190h30c1 10-1 24 2 32 10-44 99-50 107 0 11-21 27-35 58-36 85-2 47 119 55 194h-31v-121c0-29-5-49-35-48" id="V"/><g id="j"><use transform="matrix(0.06790123456790124,0,0,0.06790123456790124,0,0)" xlink:href="#L"/><use transform="matrix(0.06790123456790124,0,0,0.06790123456790124,6.790123456790124,0)" xlink:href="#U"/><use transform="matrix(0.06790123456790124,0,0,0.06790123456790124,12.154320987654323,0)" xlink:href="#V"/><use transform="matrix(0.06790123456790124,0,0,0.06790123456790124,32.4567901234568,0)" xlink:href="#K"/><use transform="matrix(0.06790123456790124,0,0,0.06790123456790124,46.037037037037045,0)" xlink:href="#N"/></g><path d="M141 0L90-78 38 0H4l68-98-65-92h35l48 74 47-74h35l-64 92 68 98h-35" id="W"/><g id="k"><use transform="matrix(0.06790123456790124,0,0,0.06790123456790124,0,0)" xlink:href="#K"/><use transform="matrix(0.06790123456790124,0,0,0.06790123456790124,13.580246913580249,0)" xlink:href="#W"/><use transform="matrix(0.06790123456790124,0,0,0.06790123456790124,25.802469135802472,0)" xlink:href="#P"/><use transform="matrix(0.06790123456790124,0,0,0.06790123456790124,39.38271604938272,0)" xlink:href="#U"/><use transform="matrix(0.06790123456790124,0,0,0.06790123456790124,44.74691358024692,0)" xlink:href="#N"/><use transform="matrix(0.06790123456790124,0,0,0.06790123456790124,52.827160493827165,0)" xlink:href="#K"/><use transform="matrix(0.06790123456790124,0,0,0.06790123456790124,66.40740740740742,0)" xlink:href="#R"/></g><g id="l"><use transform="matrix(0.06790123456790124,0,0,0.06790123456790124,0,0)" xlink:href="#U"/><use transform="matrix(0.06790123456790124,0,0,0.06790123456790124,5.364197530864199,0)" xlink:href="#O"/><use transform="matrix(0.06790123456790124,0,0,0.06790123456790124,18.944444444444446,0)" xlink:href="#P"/><use transform="matrix(0.06790123456790124,0,0,0.06790123456790124,32.5246913580247,0)" xlink:href="#M"/><use transform="matrix(0.06790123456790124,0,0,0.06790123456790124,46.104938271604944,0)" xlink:href="#L"/></g><g id="m"><use transform="matrix(0.06790123456790124,0,0,0.06790123456790124,0,0)" xlink:href="#U"/><use transform="matrix(0.06790123456790124,0,0,0.06790123456790124,5.364197530864199,0)" xlink:href="#Q"/></g><path d="M177-190C167-65 218 103 67 71c-23-6-38-20-44-43l32-5c15 47 100 32 89-28v-30C133-14 115 1 83 1 29 1 15-40 15-95c0-56 16-97 71-98 29-1 48 16 59 35 1-10 0-23 2-32h30zM94-22c36 0 50-32 50-73 0-42-14-75-50-75-39 0-46 34-46 75s6 73 46 73" id="X"/><path d="M108 0H70L1-190h34L89-25l56-165h34" id="Y"/><g id="n"><use transform="matrix(0.06790123456790124,0,0,0.06790123456790124,0,0)" xlink:href="#X"/><use transform="matrix(0.06790123456790124,0,0,0.06790123456790124,13.580246913580249,0)" xlink:href="#U"/><use transform="matrix(0.06790123456790124,0,0,0.06790123456790124,18.944444444444446,0)" xlink:href="#Y"/><use transform="matrix(0.06790123456790124,0,0,0.06790123456790124,31.16666666666667,0)" xlink:href="#K"/><use transform="matrix(0.06790123456790124,0,0,0.06790123456790124,44.74691358024692,0)" xlink:href="#O"/></g><path d="M27 0v-27h64v-190l-56 39v-29l58-41h29v221h61V0H27" id="Z"/><g id="o"><use transform="matrix(0.06790123456790124,0,0,0.06790123456790124,0,0)" xlink:href="#Z"/><use transform="matrix(0.06790123456790124,0,0,0.06790123456790124,13.580246913580249,0)" xlink:href="#Q"/></g><path d="M240 0l2-218c-23 76-54 145-80 218h-23L58-218 59 0H30v-248h44l77 211c21-75 51-140 76-211h43V0h-30" id="aa"/><path d="M96-169c-40 0-48 33-48 73s9 75 48 75c24 0 41-14 43-38l32 2c-6 37-31 61-74 61-59 0-76-41-82-99-10-93 101-131 147-64 4 7 5 14 7 22l-32 3c-4-21-16-35-41-35" id="ab"/><path d="M100-194c62-1 85 37 85 99 1 63-27 99-86 99S16-35 15-95c0-66 28-99 85-99zM99-20c44 1 53-31 53-75 0-43-8-75-51-75s-53 32-53 75 10 74 51 75" id="ac"/><path d="M141-36C126-15 110 5 73 4 37 3 15-17 15-53c-1-64 63-63 125-63 3-35-9-54-41-54-24 1-41 7-42 31l-33-3c5-37 33-52 76-52 45 0 72 20 72 64v82c-1 20 7 32 28 27v20c-31 9-61-2-59-35zM48-53c0 20 12 33 32 33 41-3 63-29 60-74-43 2-92-5-92 41" id="ad"/><g id="p"><use transform="matrix(0.07407407407407408,0,0,0.07407407407407408,0,0)" xlink:href="#aa"/><use transform="matrix(0.07407407407407408,0,0,0.07407407407407408,22.148148148148152,0)" xlink:href="#M"/><use transform="matrix(0.07407407407407408,0,0,0.07407407407407408,36.96296296296297,0)" xlink:href="#Q"/><use transform="matrix(0.07407407407407408,0,0,0.07407407407407408,50.296296296296305,0)" xlink:href="#U"/><use transform="matrix(0.07407407407407408,0,0,0.07407407407407408,56.14814814814815,0)" xlink:href="#ab"/><use transform="matrix(0.07407407407407408,0,0,0.07407407407407408,69.4814814814815,0)" xlink:href="#C"/><use transform="matrix(0.07407407407407408,0,0,0.07407407407407408,88.66666666666667,0)" xlink:href="#ac"/><use transform="matrix(0.07407407407407408,0,0,0.07407407407407408,103.4814814814815,0)" xlink:href="#L"/><use transform="matrix(0.07407407407407408,0,0,0.07407407407407408,110.8888888888889,0)" xlink:href="#K"/><use transform="matrix(0.07407407407407408,0,0,0.07407407407407408,125.70370370370372,0)" xlink:href="#E"/><use transform="matrix(0.07407407407407408,0,0,0.07407407407407408,140.962962962963,0)" xlink:href="#N"/><use transform="matrix(0.07407407407407408,0,0,0.07407407407407408,149.7777777777778,0)" xlink:href="#ad"/><use transform="matrix(0.07407407407407408,0,0,0.07407407407407408,164.5925925925926,0)" xlink:href="#U"/><use transform="matrix(0.07407407407407408,0,0,0.07407407407407408,170.44444444444446,0)" xlink:href="#O"/><use transform="matrix(0.07407407407407408,0,0,0.07407407407407408,185.25925925925924,0)" xlink:href="#K"/><use transform="matrix(0.07407407407407408,0,0,0.07407407407407408,200.07407407407408,0)" xlink:href="#N"/></g><g id="q"><use transform="matrix(0.07407407407407408,0,0,0.07407407407407408,0,0)" xlink:href="#Q"/><use transform="matrix(0.07407407407407408,0,0,0.07407407407407408,13.333333333333336,0)" xlink:href="#L"/><use transform="matrix(0.07407407407407408,0,0,0.07407407407407408,20.740740740740744,0)" xlink:href="#ad"/><use transform="matrix(0.07407407407407408,0,0,0.07407407407407408,35.55555555555556,0)" xlink:href="#L"/><use transform="matrix(0.07407407407407408,0,0,0.07407407407407408,42.96296296296296,0)" xlink:href="#K"/></g><path d="M106-169C34-169 62-67 57 0H25v-261h32l-1 103c12-21 28-36 61-36 89 0 53 116 60 194h-32v-121c2-32-8-49-39-48" id="ae"/><g id="r"><use transform="matrix(0.07407407407407408,0,0,0.07407407407407408,0,0)" xlink:href="#V"/><use transform="matrix(0.07407407407407408,0,0,0.07407407407407408,22.148148148148152,0)" xlink:href="#ad"/><use transform="matrix(0.07407407407407408,0,0,0.07407407407407408,36.96296296296297,0)" xlink:href="#ab"/><use transform="matrix(0.07407407407407408,0,0,0.07407407407407408,50.296296296296305,0)" xlink:href="#ae"/><use transform="matrix(0.07407407407407408,0,0,0.07407407407407408,65.11111111111111,0)" xlink:href="#U"/><use transform="matrix(0.07407407407407408,0,0,0.07407407407407408,70.96296296296296,0)" xlink:href="#O"/><use transform="matrix(0.07407407407407408,0,0,0.07407407407407408,85.77777777777777,0)" xlink:href="#K"/></g></defs></g></svg>